# xmcd
#
# Track frame offsets:
#	150
#	18232
#	38520
#	59951
#	82818
#	95373
#	115342
#	131959
#	152542
#	167052
#	178126
#
# Disc length: 2406 seconds
#
# Revision: 0
# Processed by: cddbd v1.5.2PL0 Copyright (c) Steve Scherf et al.
# Submitted via: audiograbber 1.83.01
#
DISCID=8a09640b
DTITLE=Catberrys - Minnie Mazola
DYEAR=2011
DGENRE=Rock and Roll
TTITLE0=The Witch Is Dead (Bang Bang)
TTITLE1=Miss '67
TTITLE2=Voodoo Doll
TTITLE3=F.L.O.M.
TTITLE4=When She Arrives
TTITLE5=Minnie Mazola
TTITLE6=Love
TTITLE7=Black Sheep
TTITLE8=How Does It Feel
TTITLE9=Without My Rock'n'Roll
TTITLE10=Hello There Goodbye
EXTD=
EXTT0=
EXTT1=
EXTT2=
EXTT3=
EXTT4=
EXTT5=
EXTT6=
EXTT7=
EXTT8=
EXTT9=
EXTT10=
PLAYORDER=
